<?xml version="1.0" encoding="UTF-8" standalone="no"?>
<svg
   width="2072.8152pt"
   height="1722.2657pt"
   version="1.1"
   viewBox="0 0 2072.8152 1722.2657"
   id="svg1"
   xmlns="http://www.w3.org/2000/svg"
   xmlns:svg="http://www.w3.org/2000/svg">
  <defs
     id="defs1">
    <clipPath
       clipPathUnits="userSpaceOnUse"
       id="clipPath17">
      <path
         id="path18"
         style="fill:#ff0000;fill-opacity:1;fill-rule:nonzero;stroke:none;stroke-width:0.75"
         d="M 152.93848,222.40137 V 1959.2769 c 20.26972,-12.1791 42.98582,-18.1132 66.17285,-21.9698 14.76214,-2.0011 29.47926,-4.1074 44.16797,-6.5786 12.05245,-1.8146 24.24632,-4.4926 36.93164,-6.6489 0.16648,-0.025 0.33304,-0.049 0.49951,-0.073 1.68853,-0.54 3.37803,-1.0794 5.06689,-1.6185 20.14409,-6.8814 37.52012,-6.5779 58.98487,-6.6489 18.91754,1.9851 37.56585,5.9432 56.13134,9.9858 22.8329,4.7117 45.48878,10.1763 67.96729,16.3521 19.60461,4.974 39.34799,9.3573 59.12402,13.5921 23.98122,4.9713 48.27062,8.2791 72.39698,12.4748 21.89006,3.4075 43.79001,6.9012 65.7583,9.7822 18.11018,1.7609 36.07728,4.5972 54.09228,7.1058 14.18403,1.2327 28.26963,2.7993 42.26073,5.5079 3.5448,0.8289 7.09028,1.6551 10.64213,2.4537 8.98065,-2.2661 18.1173,-3.7593 27.34125,-4.6188 4.91744,-0.3614 9.84562,-0.4953 14.77447,-0.5654 3.26662,-0.041 6.53438,-0.05 9.80123,-0.05 5.93857,-0.01 11.87684,-0.01 17.81542,-0.01 15.78825,-0.4415 31.51387,0.6855 47.20462,2.3335 7.70363,0.9895 15.44228,1.5637 23.19435,1.9732 5.67705,0.2785 11.36078,0.3863 17.04345,0.4643 8.46795,0.072 16.93515,0.087 25.40333,0.1026 7.83945,0.01 15.68002,0.017 23.51948,0.017 6.38422,0 12.76852,-3e-4 19.15282,0 10.1815,3e-4 20.3619,0 30.5435,0 13.3576,10e-5 26.7161,0 40.0737,0 14.4463,0.5498 28.804,-0.953 43.1968,-1.96 16.9567,-1.2241 33.9459,-1.8707 50.9385,-2.3144 19.1337,-0.4056 38.2728,-0.455 57.4101,-0.52 25.2335,-1.4173 50.4827,-2.4626 75.7427,-3.2578 31.592,-0.8863 63.1965,-1.1812 94.7988,-1.4048 28.9903,-0.1815 57.98,-0.2368 86.9707,-0.2798 25.6217,-0.033 51.2446,-0.037 76.8663,-0.047 23.9595,-0.01 47.9189,-0.01 71.8784,-0.011 24.0101,-8e-4 48.0192,0 72.0293,0 25.2253,-10e-5 50.4513,10e-5 75.6767,0 h 71.7173 74.7993 73.8384 90.375 c 32.1275,0.5797 64.1655,-2.0232 96.189,-4.1704 31.8567,-3.016 63.7479,-5.5508 95.6909,-7.437 24.777,-1.2386 49.4696,-3.6553 74.2368,-5.1167 27.4806,-0.6256 54.8447,-2.7437 82.1426,-5.8946 33.4796,-4.144 66.8919,-8.8023 100.3755,-12.9082 28.2173,-3.3314 56.294,-7.6837 84.4614,-11.389 18.3208,-2.3906 36.705,-4.2496 55.1382,-5.4918 19.8175,-1.1597 39.6812,-1.1376 59.5254,-1.248 28.6883,-0.1157 57.3769,-0.1254 86.0654,-0.1436 -3.1092,-23.296 -2.692,-46.8463 -3.9595,-70.267 -1.7142,-25.4936 -2.8669,-51.0165 -3.7749,-76.5499 -0.6869,-12.5507 -0.4134,-25.1437 -0.9843,-37.6963 -0.03,-0.6742 0.05,1.3632 -0.098,2.0215 -0.058,0.2544 -0.1255,-0.5071 -0.1875,-0.7603 -0.5276,-3.1154 -0.9044,-6.2532 -1.3725,-9.3779 -0.8234,-2.6424 -1.1024,-3.3413 -1.6084,-5.0259 -2.943,-9.796 -2.9885,-12.0338 -5.5943,-24.6474 -3.3115,-20.1136 -5.5355,-40.3741 -8.9853,-60.4673 -2.2078,-12.9083 -4.109,-25.87 -6.0879,-38.8184 -32.1838,4.135 -86.7066,-13.5535 -189.794,-23.1753 -9.4473,-0.8818 -6.1788,-17.9421 -9.268,-26.9136 -6.0663,-26.0256 -6.2615,-52.8705 -6.8394,-79.4458 -0.5414,-31.9736 -0.5704,-63.9538 -0.6504,-95.9311 0.6115,-28.375 -0.7903,-56.6962 -2.2075,-85.021 -1.1622,-24.8132 -1.7808,-49.6462 -2.2075,-74.4815 -1.2451,-30.8672 1.4321,-61.6573 4.4414,-92.3437 3.3735,-36.7042 8.9027,-73.1206 15.6255,-109.3447 6.2166,-27.22325 8.3511,-56.23325 21.4819,-81.45703 5.8111,-11.16307 13.7292,-21.09435 20.5942,-31.64212 34.6787,-25.93163 40.9737,-38.71875 80.2896,-45.26513 8.6338,-1.4376 17.0624,-2.01075 25.3594,-1.92187 24.8909,0.26662 48.6011,6.50085 73.1367,13.29202 29.8969,7.7826 59.2037,17.4699 88.1763,28.14113 27.9782,10.08727 54.9052,22.46377 80.8154,37.0224 13.6591,7.65165 26.2026,16.63537 37.8545,26.66017 4.425,-0.2832 8.8302,-0.82537 13.2612,-0.95505 30.7385,0.069 56.4845,9.33638 82.377,24.85403 14.2336,8.93557 26.1053,20.49175 37.8003,32.40965 2.1086,2.5483 4.3709,4.9761 6.3266,7.6435 7.0503,9.6158 12.4855,18.3385 17.8828,28.7666 1.9992,3.8627 4.4179,9.4302 2.5474,5.1592 4.0843,8.4739 8.4892,16.7049 12.8291,25.3579 3.7217,6.8523 7.5855,13.6116 11.2529,20.499 2.5274,3.5647 7.5495,11.5674 11.5313,18.1729 8.4093,13.3993 1.3316,2.2763 12.6855,17.9135 8.54,11.3485 15.5874,23.6584 22.0708,36.2637 -0.078,-0.2 -0.3351,-0.7892 -0.2329,-0.6006 6.4886,11.9684 10.3433,20.293 16.0108,32.5196 -0.1844,-0.4855 -0.8052,-1.9105 -0.5538,-1.4561 9.7121,17.5549 2.5942,5.3702 12.0118,23.9986 -0.3958,-0.8694 -1.6548,-3.4401 -1.1866,-2.6075 4.5107,8.0227 8.0467,16.6667 11.8155,25.046 7.8453,16.3032 13.1962,33.5595 17.1181,51.1773 -0.3346,-1.5123 -0.9574,-2.9886 -1.0034,-4.5368 -0.034,-1.1497 0.6608,2.2046 0.9668,3.3135 0.6591,2.3882 1.3312,4.7733 1.9277,7.1778 2.4118,9.7229 3.9708,19.505 5.2925,29.4243 2.3045,16.73 2.4516,33.539 2.0786,50.3804 -0.6684,16.9537 -3.9568,33.5815 -7.125,50.1943 -4.9027,25.5953 -16.0925,48.9317 -30.0439,70.7315 -11.5211,17.5216 -25.7426,32.7576 -40.6538,47.392 -17.2334,17.2793 -37.2698,30.9227 -58.4224,42.9024 -22.6495,12.6257 -46.9285,21.4664 -71.3232,29.9765 -4.9493,1.8394 -10.0847,3.105 -15.104,4.7301 3.2832,48.9024 5.1071,97.9024 6.1523,146.8944 0.7384,40.1506 0.8574,80.3083 1.1206,120.4644 14.5558,1.5433 29.1512,2.7381 43.7842,3.6021 29.3405,1.9005 58.7328,2.9416 88.1148,4.1674 18.3598,0.5858 36.7167,1.2659 55.0825,1.6377 21.0972,0.3957 42.1973,0.6089 63.2973,0.7764 1.7085,0.013 3.417,0.016 5.1255,0.028 V 222.40137 Z M 3061.771,1305.0205 c -3.2723,3.8772 -6.8559,7.5027 -10.396,11.1636 2.9468,6.5191 5.6281,11.674 9.0308,19.7226 2.5058,5.9274 1.9664,12.7199 2.9502,19.0796 -0.1458,14.9255 -0.7614,29.4878 -3.0279,44.0728 0.4029,0.6956 0.6795,1.448 1.0708,2.1489 6.8407,-2.3275 13.801,-4.3785 20.1958,-7.6963 12.6891,-7.0869 -6.4639,5.6657 7.4048,-4.6084 1.4008,-1.3681 2.7883,-2.7493 4.2012,-4.1045 0.078,-0.6715 0.2716,-1.0783 0.3662,-2.0024 0.5282,13.9255 -0.044,-3.0429 -0.5127,-7.0225 -0.9537,-3.0359 -9.7407,-21.328 -3.7061,-14.6264 -5.4092,-11.9029 -2.4061,-6.4964 -10.0297,-21.1773 1.014,1.8253 4.0886,7.2825 3.0424,5.4756 -6.8752,-11.8734 -9.7687,-19.2401 -15.9038,-31.0708 -1.9186,-4.1117 -3.3215,-6.5693 -4.686,-9.3545 z m 31.292,80.54 c -0.6111,0.7637 -1.3105,1.7286 -0.9624,1.3125 0.4398,-0.5258 0.5398,-0.69 0.9375,-1.1835 0.01,-0.037 0.02,-0.09 0.025,-0.129 z m -1.9585,10.7198 c -0.041,0.1451 -0.078,0.291 -0.1172,0.4365 -0.1607,0.9499 -0.3212,1.8992 -0.4819,2.8491 0.4391,-2.2754 0.3075,-1.9157 0.5991,-3.2856 z m -478.166,94.125 c -2.7833,2.4786 -1.7703,9.5781 -3.044,13.8325 -0.1833,0.6119 -0.5087,2.5029 -0.3764,1.8779 0.5688,-2.6884 1.0889,-5.3859 1.6582,-8.0742 0.5331,-2.5561 1.2047,-5.0839 1.7622,-7.6362 z M 788.12693,1992.5684 c -1.44765,-0.1251 4.1928,0.56 4.31835,0.5947 0.2232,-0.058 0.44752,-0.1091 0.67095,-0.1655 3.58777,0.3886 -2.01525,-0.22 -3.7251,-0.3531 -0.42165,-0.025 -0.8433,-0.04 -1.2642,-0.076 z m 40.34325,7.8017 c 2.21302,0.7967 4.47592,1.3539 6.44092,2.0684 1.47698,0.5371 -2.9499,-1.0831 -4.42522,-1.6245 -0.636,-0.2227 -1.36575,-0.2493 -2.0157,-0.4439 z m 52.33155,154.1953 c 0.43657,0.2965 0.8553,0.6095 1.29202,0.9053 1.272,0.8474 2.64345,1.5372 3.89505,2.4155 -1.72942,-1.1068 -6.88567,-4.4743 -5.18707,-3.3208 z m 838.03717,73.0752 c -24.0073,10e-5 -48.0147,7e-4 -72.022,0 -23.9423,0 -47.885,2e-4 -71.8272,0.01 -25.5224,0.01 -51.0449,0.015 -76.5673,0.046 -28.5346,0.042 -57.0698,0.097 -85.604,0.2739 -29.6233,0.2085 -59.2479,0.4761 -88.8619,1.2906 -27.5368,0.8574 -55.0426,2.3163 -82.5703,3.3765 -17.3104,0.058 -34.6224,0.1 -51.9301,0.441 -13.4021,0.3408 -26.8027,0.8293 -40.1763,1.7988 -20.0655,1.4026 -40.1376,3.0873 -60.2739,2.556 -13.3579,0 -26.7159,1e-4 -40.0738,0 -10.1851,0 -20.37,0 -30.5551,0 h -19.2276 c -7.96147,0 -15.9228,-0.01 -23.88427,-0.017 -8.5155,-0.016 -17.0316,-0.043 -25.54688,-0.1143 6.48203,13.791 9.3261,21.4582 14.71733,43.2949 -2.81918,-12.3495 -0.18923,0.4532 1.38277,3.5772 2.23103,7.6928 4.09118,14.9832 6.5259,22.5396 2.94083,7.6917 5.98253,15.33 9.55515,22.7519 5.28878,11.6086 11.12663,22.9503 16.875,34.3359 6.8412,13.9495 13.4629,28.0057 20.1577,42.0249 9.4535,18.3922 19.165,36.6562 27.9214,55.4004 11.2572,25.5328 22.7166,51.2692 27.895,78.8671 4.3318,25.4859 6.3521,51.2007 5.0127,77.0772 -1.8449,25.6146 -4.7058,51.1665 -10.6465,76.2012 -6.9538,29.6516 -14.5175,59.1884 -24.0615,88.1265 -2.2981,6.7391 -5.1641,13.2696 -7.5395,19.9818 0.6967,0.3248 1.3048,0.7746 2.0141,1.0871 13.4963,5.7799 27.4203,10.3878 41.4273,14.7348 23.9131,2.2483 47.8299,4.5166 71.7275,6.6796 61.1491,4.7607 122.3536,8.721 183.5654,12.5421 2.4567,-9.7458 4.9815,-19.5399 7.292,-29.2339 1.5026,-6.3044 12.9484,-0.5954 19.4224,-0.8936 98.0186,0.7875 195.9154,6.9122 293.7612,12.2711 3.0147,0.2133 3.5395,0.316 6.2871,0.5083 80.5084,2.1558 161.0145,4.4121 241.5279,6.3911 11.1995,-26.2911 35.3604,-43.229 73.5996,-62.1842 2.9171,-1.446 6.0674,-2.3169 9.1611,-3.328 -2.5733,0.01 -5.1448,0.1593 -7.7182,0.1567 -15.8797,-44.3944 -37.1246,-87.5062 -54.17,-131.6221 -39.7264,-1.6758 -79.4573,-3.2508 -119.1826,-4.9511 -54.9952,-2.3541 -109.6099,-4.9932 -164.3891,-10.3345 -10.3803,-1.721 -21.0362,-2.2307 -31.1412,-5.1636 -89.5373,-25.988 -101.5971,-56.5914 -76.916,-207.1479 6.5043,-39.6765 124.6877,-55.2077 157.021,-60.2975 52.6078,-6.747 105.4201,-11.406 158.3262,-14.6923 -17.317,-92.5649 -18.1854,-89.9154 52.7681,-98.3628 h -35.6675 -71.7173 c -25.2249,0 -50.4488,-2e-4 -75.6738,0 z m -1000.92484,87.649 c -2.89496,-8.2348 -3.2709,-10.1651 4.62158,11.6235 0.0222,0.049 0.0642,0.085 0.0864,0.1348 -1.7939,-4.6608 -3.40871,-8.0625 -4.70801,-11.7583 z m 5.41114,7.6376 c 1.10091,5.0308 1.65352,6.5264 2.13867,8.5621 0.0465,0.088 0.11288,0.1628 0.15967,0.2504 -0.65252,-2.9673 -1.7196,-5.8274 -2.29834,-8.8125 z m -205.292,7.8926 c -11.99616,-0.1786 -23.97487,0.6596 -35.96338,1.0796 1.14742,8.2759 2.49968,16.521 2.86963,24.9097 37.87476,5.735 75.83497,10.935 113.78907,16.0444 37.05268,4.7812 74.0981,9.3968 110.91796,15.7822 9.34478,1.6207 22.02754,3.9878 34.48975,6.6387 -0.0363,-0.093 -0.0795,-0.1836 -0.11572,-0.2768 -5.18529,-13.5543 -9.2636,-27.4757 -12.66358,-41.5723 -0.4431,-1.8371 0.90518,3.6687 1.35791,5.5034 -0.8298,-2.3562 -1.14966,-4.8472 -1.88525,-7.229 -6.22507,-3.4801 -12.27791,-7.273 -18.21826,-11.2295 0.11289,0.074 -0.18111,-0.1147 -0.0733,-0.044 -1.86551,0.097 -3.78036,-0.7884 -5.67773,-1.1469 -2.70435,-0.5112 -5.41896,-0.9656 -8.12843,-1.4487 -23.825,-3.8208 -48.02882,-4.5051 -72.10254,-5.3541 -36.18916,-1.044 -72.39457,-1.3728 -108.59619,-1.6568 z m 184.08106,4.8662 c -0.0906,0.5081 5.93861,2.4887 8.29834,3.4908 -0.5624,-0.2765 -3.90349,-2.3656 -5.80518,-3.4175 -1.75271,-0.2488 -2.46296,-0.2426 -2.49316,-0.073 z m 25.11181,2.8609 c 0.0192,0.058 0.0141,0.075 0.0337,0.1333 0.18669,0.4575 0.30182,0.7516 0.48338,1.188 -0.007,-0.028 -0.0136,-0.055 -0.0205,-0.082 -0.12188,-0.2268 -0.36252,-0.9695 -0.49659,-1.2392 z m -18.54199,0.1538 c 0.86236,0.5737 1.67141,0.8231 2.88428,1.1557 0.34037,0.2274 -0.66945,-0.4102 -0.52002,-0.3061 -1.23571,-0.5499 -3.06136,-1.3133 -2.36426,-0.8496 z m -296.2998,5.0347 c -0.1587,-0.055 -0.22275,0.4515 -0.0615,0.4995 1.22553,0.3632 2.48292,0.6093 3.72657,0.9052 -1.24614,-0.4133 -2.42963,-0.9742 -3.66504,-1.4047 z m -259.4458,297.1845 v 153.1011 c 28.35047,-2.0074 56.91492,-1.9278 85.2832,-2.2295 -5.28456,-12.021 -10.8944,-23.9017 -17.09033,-35.5181 -20.92426,-39.5024 -43.88093,-77.8427 -68.19287,-115.3535 z m 2918.87402,60.586 c -0.9797,2.4296 -1.9224,4.8739 -2.9019,7.3037 0.428,24.9542 0.2841,49.9169 -1.0048,74.8813 -0.7326,7.9129 -1.7033,15.8125 -2.4917,23.729 7.9862,0.3254 15.9761,0.5557 23.9619,0.8921 -0.4424,-2.3638 -0.9895,-4.7066 -1.4297,-7.0708 -5.8641,-33.1684 -10.9735,-66.4555 -16.1338,-99.7353 z m -1056.8672,50.5048 c -2.4421,0.3997 -4.8953,0.7314 -7.3286,1.1807 -2.862,0.5285 -4.2869,1.254 -4.6904,2.0376 1.4686,-0.4179 2.9616,-0.7758 4.4106,-1.2422 2.5303,-0.6808 5.0772,-1.2986 7.6084,-1.9761 z m 488.8184,31.9058 c 0.2882,0.2961 0.6099,0.6043 0.895,0.9009 3.8516,4.0064 20.4798,8.4795 15.6709,5.6938 -5.1428,-2.9789 -10.9128,-4.7059 -16.5659,-6.5947 z m 159.9843,6.2593 c -1.768,1.7238 -3.5757,3.3979 -5.3408,5.1255 2.1618,0.042 4.3231,0.1 6.4849,0.1421 -0.3695,-1.7584 -0.7763,-3.5093 -1.1441,-5.2676 z m -1630.3066,22.103 c -0.025,0.07 -0.055,0.1401 -0.081,0.2109 0.098,0.01 0.1961,0.026 0.2945,0.037 -0.056,-0.076 -0.1574,-0.1716 -0.2139,-0.2476 z m 2344.5952,299.8008 c -27.5255,4.2422 -55.3337,4.4283 -83.2207,3.4834 -2.2275,10.9166 -5.1502,24.4335 -7.7944,36.8481 17.7518,5.8359 27.3584,16.3083 31.3359,32.354 19.8802,-1.0072 39.7726,-1.6162 59.6792,-1.6889 z M 152.93994,3349.8003 v 25.106 h 46.50293 c -8.36084,-2.6916 -16.69854,-5.488 -24.73974,-9.5435 -7.15093,-5.304 -14.71743,-10.1401 -21.76319,-15.5625 z" />
    </clipPath>
  </defs>
  <path
     id="path1"
     d="m 744.88184,222.41016 c -68.03762,-1.09339 -68.73353,106.1732 0.16406,105.04834 h 108.70019 l -33.1875,78.89209 h -75.65625 c -68.062,-0.98 -68.344,106.31396 0,105.18896 h 638.56936 v 67.64209 c -76.362,23.48 -132.189,95.47814 -132.189,181.11914 -0.98,68.766 106.314,68.766 105.189,0 -1.4,-107.58 160.5966,-107.58 159.1904,0 -0.98,68.766 106.3154,68.766 105.1904,0 0,-85.776 -55.8314,-157.77514 -132.1904,-181.11914 v -67.64209 h 684.7192 c 62.296,0 112.6407,-51.18896 112.6407,-114.18896 8.72,-82.128 -15.4687,-173.53423 -112.6407,-174.94043 H 744.8877 Z M 964.53955,327.4585 H 1135.96 l -33.1875,78.89209 H 931.35205 Z m 1168.17185,10e-4 c 22.078,0 39.6563,18.00025 39.6563,39.65625 0,21.656 -18.0003,39.23438 -39.6563,39.23438 h -644.0698 v -78.75 z m -1642.71824,0.0264 c -16.594,0 -26.57787,14.76721 -26.29687,41.34521 V 616.4707 l -171.7002,0.14063 c -68.062,-0.98438 -68.062,106.17043 0,105.19043 l -0.003,-0.004 c 74.812,0.42188 145.41,0 198,0 52.59,0 78.89063,-28.82762 78.89063,-78.89062 V 432.67676 c 78.891,0 78.891,-105.19043 0,-105.19043 z m 747.35894,0.11426 h 146.5312 l -0.1406,78.75 h -179.5811 z m -406.12651,252.7207 c -26.52563,-0.0879 -52.99805,17.45508 -52.43555,52.89258 0.42188,1 0,1244.80076 0,1244.80076 0,26.297 26.29675,52.5938 52.59375,52.5938 29.25,0 52.59375,-26.2968 52.59375,-52.5938 v -131.3408 h 157.64066 v 131.3408 c 0,23.063 26.2967,52.5938 52.5937,52.5938 26.297,0 52.5938,-19.406 52.5938,-54 v -129.94 h 262.831 v 127.4106 c 0,30.234 26.2968,56.5298 52.5938,56.5298 26.297,0 52.5937,-26.297 52.5937,-54 v -129.939 h 262.8296 v 127.4092 c 0,30.234 26.2968,56.5313 52.5938,56.5313 26.297,0 52.5937,-26.297 52.5937,-54 v -129.9405 h 131.3408 v 125.3013 l 0.041,0.032 c 0,32.062 24.4688,58.6392 52.5938,58.7798 25.594,0 52.5937,-25.5941 52.5937,-54.7031 V 665.68066 c 0,-94.3592 -105.1904,-88.59425 -105.1904,-3.65625 l -0.1406,743.06979 H 883.98047 V 633.21387 c 0.35,-35.086 -26.22926,-52.80471 -52.75488,-52.89258 z m 326.14161,299.55615 c -19.125,0 -37.5474,8.57763 -49.3594,23.76563 -11.812,14.766 -16.1719,34.59387 -11.8125,53.29687 l 93.2344,269.57959 h -0.026 c 6.468,27.703 31.3594,47.1094 59.4844,47.1094 h 381.5288 c 28.406,0 52.8764,-19.4064 59.3452,-47.1094 l 62.2969,-269.57959 c 4.782,-18.703 -5e-4,-38.10887 -11.8125,-53.29687 -11.953,-15.1879 -30.2344,-23.76563 -49.3594,-23.76563 z m 68.4844,104.7627 h 420.6079 l -52.5938,183.94049 h -315.4204 z m 1787.1899,4.6084 c -158.48,0 -260.7173,426.91989 -261.4204,431.27929 -19.83,114.46 103.6396,196.589 208.8296,219.23 v 369.7207 H 271.26855 c -67.76293,-1.0999 -68.03878,106.1733 -0.12304,105.0484 h 507.93017 v 131.3408 c 0,24.188 24.18775,53.2968 52.59375,52.5937 28.406,0.703 52.59375,-26.2967 52.59375,-52.5937 V 2114.5269 H 2014.3638 v 131.3408 c 0,26.297 22.3597,53.2968 52.5937,52.5937 32.063,0.984 52.5938,-26.2967 52.5938,-52.5937 v -131.3408 l 1199.2002,0.1406 c 68.062,0.98 68.344,-106.314 0,-105.189 H 3065.6309 V 1693.96 c -3.9594,-3.3872 -7.8087,-7.9332 -11.2969,-13.8662 -12.5999,-21.4314 -23.6238,-43.7524 -35.7393,-65.4581 -20.5835,-40.4128 -40.7343,-81.0433 -60.0674,-122.0698 0.7847,16.0715 1.9232,31.5939 1.9234,43.8384 -34.8816,-14.0675 -105.1832,-52.5958 -104.9019,-105.186 0,-23.7033 10.1561,-64.6059 24.895,-109.4766 -5.0785,-10.8321 -10.2069,-21.6407 -15.3735,-32.4302 -13.0829,-27.3211 -2.1726,-47.5048 13.2114,-48.2519 8.185,-0.3976 17.6262,4.7443 25.4034,17.2031 34.677,-86.253 80.0859,-168.624 109.5044,-168.624 52.45,0 157.6391,262.6886 157.6391,341.5796 -1.13,46.831 -60.189,88.3154 -105.189,105.1904 0,-52.45 20.5298,-159.0468 -52.5952,-157.6406 -21.3616,-0.5346 -34.1148,8.8242 -42.3383,22.7798 8.0583,17.834 16.1093,35.6716 24.2475,53.4711 21.4598,46.2675 44.1212,91.9546 67.2671,137.3965 7.7906,13.856 15.0685,28.0019 22.6274,41.9883 100.387,-27.6948 208.2492,-106.2825 189.6123,-213.876 -0.84,-4.35 -102.6489,-431.27926 -261.4189,-431.27926 z M 884.13135,1510.1294 h 236.53125 v 131.3408 H 884.13135 Z m 315.41015,0 h 367.8809 v 131.3408 h -367.8809 z m 473.061,0.1406 h 341.5796 v 131.3394 h -341.5796 z m 1557.9244,625.0972 c -45.4436,-4.2832 -86.0203,62.6979 -35.0611,96.6328 50.765,35.3 110.5314,-38.109 66.2344,-81 -9.9403,-9.8606 -20.6864,-14.6444 -31.1733,-15.6328 z m -2824.45024,25.5337 c -43.10468,2.387 -73.83857,66.6707 -27.33838,96.6064 56.109,39.234 115.88038,-50.4835 58.35938,-87.1875 -10.46775,-7.2245 -21.07377,-9.9698 -31.021,-9.4189 z m 1910.73344,10.3066 c -45.3106,-4.2731 -85.763,63.1111 -35.1475,96.7031 50.766,35.578 110.9489,-38.531 66.2329,-81 -9.9141,-9.914 -20.6292,-14.717 -31.0854,-15.7031 z m 507.6284,15.9229 c -45.3719,-4.3768 -85.967,62.3917 -35.124,96.6694 50.766,35.297 110.5289,-38.25 66.2329,-81 -9.9141,-9.8614 -20.6385,-14.6594 -31.1089,-15.6694 z m -2178.08498,0.8217 c -44.96727,-8.9344 -86.33879,52.2362 -46.96729,89.3965 53.016,52.875 128.53038,-39.656 66.23438,-81 -6.34575,-4.4121 -12.8432,-7.1201 -19.26709,-8.3965 z m 1916.36568,76.7168 c -43.1858,2.3334 -73.7331,66.5165 -27.2329,96.9097 56.109,38.109 115.5904,-50.4837 58.3594,-87.4687 -10.5204,-7.2246 -21.1605,-9.9794 -31.1265,-9.441 z m 537.6534,26.0245 c -12.1498,-0.4991 -25.8092,4.0264 -40.0474,15.8393 -33.047,30.938 -8.1562,90.7017 37.125,89.5767 79.8663,-6.7413 55.5714,-103.2533 2.9224,-105.416 z m -2817.12895,26.3598 c -39.22512,0.9657 -77.92667,48.2962 -39.06299,89.5781 38.531,40.219 108.69963,-6.4677 85.64063,-57.2329 -10.81063,-23.6425 -28.74804,-32.7841 -46.57764,-32.3452 z m 1782.96675,34.0064 c -29.109,0 -52.5937,23.3437 -52.5937,52.5937 -4.3594,37.828 3.9372,89.2982 52.5937,88.5952 29.109,0 52.5953,-23.3452 52.5953,-52.5952 4.3594,-37.828 -3.9388,-89.2967 -52.5953,-88.5937 z m -1233.45991,16.5879 c -29.109,0 -52.59375,23.3452 -52.59375,52.5952 -4.3594,37.828 3.93725,89.2967 52.59375,88.5937 29.109,0 52.59521,-23.3437 52.59521,-52.5937 4.3594,-37.828 -4.36061,-89.2982 -52.59521,-88.5952 z m -321.29736,1.3754 c -13.01219,-0.9843 -26.67933,3.3136 -38.63233,15.1963 -48.656,47.109 26.15638,122.3404 74.10938,74.1094 36.7035,-35.859 3.55951,-86.3525 -35.47705,-89.3057 z m 1797.84817,51.6402 c -38.9717,3.0125 -72.0109,53.2679 -35.5152,89.1269 47.531,48.656 123.4704,-26.5783 74.1094,-74.1093 -11.953,-11.7773 -25.6037,-16.0218 -38.5942,-15.0176 z m 507.709,25.8223 c -39.0306,2.9992 -72.386,53.6764 -35.5752,89.3247 47.109,48.938 122.7703,-26.5784 74.1093,-74.1094 -11.8827,-11.918 -25.524,-16.2151 -38.5341,-15.2153 z m 402.3237,27.6562 c -27.914,2.83 -54.0344,24.2753 -46.6494,61.0488 11.109,60.891 105.4695,51.4688 104.0595,-10.4062 0.211,-37.6875 -29.4961,-53.4726 -57.4101,-50.6426 z m -2861.82863,25.812 c -26.64827,-0.035 -53.29668,16.8045 -52.59668,50.625 -0.98438,67.922 105.88897,67.922 105.18897,0 0.7031,-33.6795 -25.94401,-50.5897 -52.59229,-50.625 z m 474.13477,37.1763 c -26.27992,-0.2285 -52.54248,16.9627 -52.54248,52.2597 v 243.4205 c 126.14203,172.4053 105.19043,-171.9694 105.19043,-243.4205 -0.0703,-34.383 -26.36803,-52.0312 -52.64795,-52.2597 z m 1235.21626,0.4497 c -26.2975,0.4395 -52.5952,18.1584 -52.5952,51.8379 v 243.4204 c -0.7031,68.344 106.1705,68.344 105.1905,0 v -243.4204 c 0,-35.4375 -26.2978,-52.2774 -52.5953,-51.8379 z m -1454.21187,37.5308 c -12.9572,-0.9337 -26.51816,3.5398 -38.29541,15.81 -49.078,47.391 26.15638,122.6204 74.10938,74.1094 36.492,-35.6483 3.05764,-87.1184 -35.81397,-89.9194 z m 1917.65037,1.4765 c -12.9507,1.5755 -25.4663,8.4752 -34.7475,22.5029 -38.531,56.109 50.0632,114.8904 87.4702,58.3594 28.8982,-42.3982 -13.8706,-85.5889 -52.7227,-80.8623 z m 467.562,50.5327 c -3.7909,0.01 -7.7695,0.4221 -11.9267,1.3008 -66.938,12.656 -46.1248,117.4194 20.5312,103.3594 62.7544,-12.2606 48.2591,-104.734 -8.6045,-104.6602 z m -2668.61422,77.1841 c -52.71828,2.1841 -77.1964,98.9309 2.66748,105.4439 45.422,1.8281 70.17225,-58.6412 37.40625,-89.5782 -14.23838,-11.8389 -27.90798,-16.3697 -40.07373,-15.8657 z m 1932.49662,0.208 c -12.9572,-0.9205 -26.5197,3.5885 -38.2969,15.9287 -49.078,47.109 26.1564,122.7704 74.1094,74.1094 36.492,-35.6482 3.0591,-87.2764 -35.8125,-90.0381 z m 404.5942,27.8921 c -26.5433,0 -53.0872,17.0159 -52.3872,51.0469 -1.125,67.641 105.89,67.641 104.77,0 0.7031,-34.031 -25.8395,-51.0469 -52.3828,-51.0469 z m -2028.1333,23.8491 c -37.03322,0.5011 -72.12895,44.192 -45.12745,81.9492 42.328,62.297 133.45013,-12.2343 80.57813,-66.2343 -10.547,-11.25 -23.10628,-15.8819 -35.45068,-15.7149 z m 2581.1074,2.2705 c -27.914,2.7598 -54.0344,23.9944 -46.6494,60.4864 10.406,60.891 105.8896,51.469 104.0596,-10.125 0.2109,-37.406 -29.4962,-53.1211 -57.4102,-50.3614 z m -1591.9453,146.6338 c -175.5577,10.5338 -281.6002,186.7461 -471.9727,61.9761 -260.87297,-158.1289 -300.69486,46.9115 -196.58931,45.8452 228.79821,244.7892 585.83621,-80.7623 818.15041,44.0171 28.828,20.812 229.3589,123.47 249.1889,6.8906 -0.2813,-29.531 -23.6251,-52.875 -52.4531,-52.875 h -0.01 c -69.891,0 -101.5307,-19.406 -141.8907,-43.875 -79.665,-50.59 -145.9085,-65.4873 -204.4277,-61.9761 z m -1317.96093,0.3238 c -39.82141,-2.1004 -72.8001,10.747 -80.13135,54.4643 0.42188,29.109 24.18762,52.4531 53.01562,52.4531 h 0.004 c 156.94,3.9375 160.87957,106.8794 338.05957,103.3594 57.234,-2.1094 156.23084,-2.8126 139.36084,-80.5781 -24.188,-64.828 -87.18884,-19.8278 -139.36084,-24.4688 -69.891,0 -101.52916,-19.406 -141.88916,-43.875 -17.31438,-12.8318 -102.69007,-57.8543 -169.05908,-61.3549 z m 2002.22313,1.8501 c -60.469,3.2344 -169.59,4.6402 -149.48,86.7656 h -0.019 c 10.125,27.422 40.3594,41.0624 67.3594,31.3594 181.41,-63 230.7704,94.3589 420.4804,90.4219 177.19,3.2344 181.1194,-99.7024 338.3394,-103.3594 157.36,3.9375 161.3008,106.8794 338.3408,103.3594 67.641,1.125 68.344,-105.8905 0,-105.1905 -157.36,-3.9375 -161.3008,-106.8793 -338.3408,-103.3593 -177.19,-3.2344 -181.1194,99.7023 -338.3394,103.3593 -156.94,-3.9375 -160.8808,-106.8793 -338.3408,-103.3593 z m 676.8867,258.7968 c -218.0437,-3.9739 -258.1688,194.1131 -480.2299,59.4844 -168.6536,-107.482 -1245.4446,70.4806 -1352.8008,0 -151.5811,-96.2592 -1401.61358,51.2278 -872.98978,45.8467 96.35755,0 364.32966,197.5432 535.08106,43.875 40.359,-24.469 71.99916,-43.875 141.88916,-43.875 69.88996,0 101.53066,19.406 141.89066,43.875 83.812,75.938 309.2289,75.938 393.1889,0 392.4223,-40.7285 762.7917,31.8127 1156.6304,59.4844 177.19,3.2344 181.4108,-99.7024 338.3408,-103.3594 157.36,3.9375 160.8794,106.8794 338.3394,103.3594 66.375,0.8438 67.781,-106.0296 -0.9844,-105.3296 h -0.016 c -156.94,-3.9375 -161.2994,-106.8794 -338.3394,-103.3594 z"
     clip-path="url(#clipPath17)"
     transform="translate(-228.61933,-208.29761)" />
  <rect
     style="fill:none;stroke-width:0.75"
     id="rect25"
     width="2057.574"
     height="1712.1046"
     x="-5.1377237e-06"
     y="5.0804462" />
  <rect
     style="fill:none;stroke-width:0.75"
     id="rect26"
     width="2072.8152"
     height="1722.2657"
     x="-5.1377237e-06"
     y="1.6889633e-06" />
</svg>
